<?xml version="1.0" encoding="iso-8859-1"?>
<!-- Generator: Adobe Illustrator 18.1.1, SVG Export Plug-In . SVG Version: 6.00 Build 0)  -->
<svg version="1.1" id="Capa_1" xmlns="http://www.w3.org/2000/svg" xmlns:xlink="http://www.w3.org/1999/xlink" x="0px" y="0px"
	 viewBox="0 0 472.23 472.23" style="enable-background:new 0 0 472.23 472.23;" xml:space="preserve">
<g>
	<path style="fill:#010002;" d="M445.924,156.126c-5.316-46.715-28.499-88.561-65.289-117.84C349.153,13.233,311.291,0,271.144,0
		c-54.006,0-104.249,24.207-137.828,66.419c-29.279,36.79-42.48,82.773-37.164,129.488s28.499,88.561,65.289,117.832
		c31.482,25.06,69.337,38.294,109.484,38.294c54.006,0,104.249-24.215,137.836-66.427
		C438.048,248.824,451.24,202.84,445.924,156.126z M396.047,275.494c-30.49,38.31-76.092,60.29-125.115,60.29
		c-36.432,0-70.792-12.022-99.364-34.758c-33.392-26.564-54.437-64.549-59.257-106.948s7.153-84.147,33.725-117.531
		c30.482-38.31,76.083-60.29,125.115-60.29c36.432,0,70.792,12.014,99.372,34.758c33.392,26.572,54.437,64.549,59.257,106.948
		C434.593,200.369,422.62,242.101,396.047,275.494z"/>
	<path style="fill:#010002;" d="M359.07,78.449c2.796-3.512,2.211-8.624-1.301-11.421C297.659,19.2,209.862,29.19,162.042,89.292
		c-23.166,29.117-33.612,65.508-29.409,102.469c4.211,36.961,22.557,70.085,51.665,93.251c1.496,1.187,3.284,1.764,5.056,1.764
		c2.39,0,4.755-1.049,6.365-3.064c2.796-3.512,2.211-8.624-1.301-11.421c-25.719-20.46-41.919-49.714-45.634-82.359
		c-3.715-32.652,5.511-64.801,25.979-90.512c42.236-53.08,119.791-61.907,172.879-19.663
		C351.161,82.529,356.274,81.96,359.07,78.449z"/>
	<path style="fill:#010002;" d="M367.313,252.636c-7.316,9.193-15.851,17.273-25.377,23.987c-3.666,2.585-4.544,7.657-1.951,11.331
		c1.585,2.243,4.097,3.438,6.649,3.438c1.618,0,3.251-0.488,4.682-1.488c10.787-7.608,20.452-16.745,28.726-27.149
		c2.796-3.512,2.211-8.633-1.301-11.421C375.222,248.531,370.109,249.125,367.313,252.636z"/>
	<path style="fill:#010002;" d="M43.852,461.524c8.82,7.023,19.574,10.705,30.897,10.705c2.65,0,5.324-0.203,8.015-0.61
		c13.981-2.113,26.678-9.559,35.758-20.972l76.433-96.064c2.796-3.512,2.211-8.624-1.301-11.421
		c-3.512-2.788-8.624-2.211-11.421,1.301L105.8,440.528c-6.511,8.185-15.558,13.526-25.467,15.022
		c-9.697,1.447-19.045-0.935-26.353-6.747c-15.265-12.16-16.875-35.644-3.568-52.356l76.441-96.064
		c2.796-3.512,2.211-8.624-1.301-11.421c-3.512-2.788-8.616-2.211-11.421,1.301l-76.449,96.064
		C18.808,410.054,21.572,443.788,43.852,461.524z"/>
</g>
<g>
</g>
<g>
</g>
<g>
</g>
<g>
</g>
<g>
</g>
<g>
</g>
<g>
</g>
<g>
</g>
<g>
</g>
<g>
</g>
<g>
</g>
<g>
</g>
<g>
</g>
<g>
</g>
<g>
</g>
</svg>
